# xmcd CD Database Entry
#
# Track frame offsets:
# 150
# 8115
# 21185
# 34710
# 47690
# 59530
# 72188
# 76838
# 88106
# 92541
# 106591
# 118543
# 132199
# 144896
# 156534
# 165352
#
# Disc length: 2418 seconds
#
# Revision: 2
# Processed by: cddbd v1.4PL0 Copyright (c) Steve Scherf et al.
# Submitted via: tcd 2.0b
#
DISCID=bf097010
DTITLE=Mano Negra - Amerika Perdida
DYEAR=1900
DGENRE=
TTITLE0=Mano negra
TTITLE1=Mala vida
TTITLE2=Amerika perdida
TTITLE3=Peligro
TTITLE4=Sidi H'Bibi
TTITLE5=Noche de accion
TTITLE6=El sur
TTITLE7=Patchuko hop
TTITLE8=Mano negra
TTITLE9=Patchanka
TTITLE10=Indios de Barcelona
TTITLE11=Guayaquil City
TTITLE12=El Jako
TTITLE13=Soledad
TTITLE14=King Kong five
TTITLE15=Salga la luna
EXTD=
EXTT0=
EXTT1=
EXTT2=
EXTT3=
EXTT4=
EXTT5=
EXTT6=
EXTT7=
EXTT8=
EXTT9=
EXTT10=
EXTT11=
EXTT12=
EXTT13=
EXTT14=
EXTT15=
PLAYORDER=
